<svg id="Group_37" data-name="Group 37" xmlns="http://www.w3.org/2000/svg" width="65.787" height="84.635" viewBox="0 0 65.787 84.635">
  <defs>
    <style>
      .cls-1 {
        fill: #fff;
      }
    </style>
  </defs>
  <path id="Path_13" data-name="Path 13" class="cls-1" d="M333.526,84.634h-19.41c.515-13.316,6.731-22.823,18.469-29.531-6.831-1.691-12.667-4.243-17.137-9.007l13.818-13.765c3.1,2.406,6.9,4.367,11.175,3.109a19.316,19.316,0,0,0,7.622-4.207c3.814-3.6,5.364-10.938-.036-17.612L361.8,0c12.63,11.127,14.813,38.7-8.774,52.237,16.5,4.564,25.539,15.11,26.876,32.368H360.52c-2.936-9.384-6.969-13.129-13.882-12.942-6.71.182-10.895,4.281-13.113,12.972" transform="translate(-314.116 0.001)"/>
  <path id="Path_14" data-name="Path 14" class="cls-1" d="M351.966,42.993a8.166,8.166,0,1,1,8.026-8.4,8.147,8.147,0,0,1-8.026,8.4" transform="translate(-327.676 -12.224)"/>
</svg>
