<?xml version="1.0" ?><svg viewBox="0 0 64 64" xmlns="http://www.w3.org/2000/svg"><g data-name="Filled outline" id="Filled_outline"><path d="M59,3a2,2,0,0,0-2,2,2,2,0,0,0-4,0,2,2,0,0,0-4,0,2,2,0,0,0-4,0V9H43a2,2,0,0,0-2,2v4l1,3,6,5s2,13,2,19c-1,0-5.173-2.142-7-3-7.727-3.628-11.011-5.035-14-7a107.953,107.953,0,0,0-13-8.024c-6-3-13-1-13-1v25l3-3c5-5,9-3,9-3,22,11,32,10,39,10S61,49,61,42c0-3-1-10-3-19l3-5V5A2,2,0,0,0,59,3Z" style="fill:#ffd782"/><path class="band-color" d="M30.862,33.133C30.208,32.763,29.6,32.392,29,32c-1.393-.915-2.918-1.994-4.676-3.162L17.7,43.291q1.945.928,3.761,1.729l.013,0q.9.4,1.768.764l.032.014q.865.366,1.7.7h0Z"/><polygon class="band-color" points="18.745 41.01 20.609 36.977 29.179 37 27.4 41 18.745 41.01"/><path class="band-color" d="M21,44.816c0,9.092-3,6.091-3,15.184l-5-3c0-9.02,4.7-4.688,4.7-13.709Z"/><path class="band-color" d="M21,44.816c0,9.092,3,7.091,3,16.184l5-3c0-9.02-2.25-2.93-4.023-11.493Z"/><path class="band-color" d="M30.862,33.133,30.629,33l-8.214,0-1.806,3.974,8.57.023Z"/><rect height="3" style="fill:#f3bb59" width="2" x="48" y="5"/><rect height="3" style="fill:#f3bb59" width="2" x="52" y="5"/><rect height="3" style="fill:#f3bb59" width="2" x="56" y="5"/><rect height="5" style="fill:#f3bb59" width="2" x="44" y="9"/><rect height="2" style="fill:#f3bb59" width="2" x="48" y="10"/><rect height="2" style="fill:#f3bb59" width="2" x="52" y="10"/><rect height="2" style="fill:#f3bb59" width="2" x="56" y="10"/><path d="M59,2a2.987,2.987,0,0,0-2,.766,2.994,2.994,0,0,0-4,0,2.994,2.994,0,0,0-4,0A3,3,0,0,0,44,5V8H43a3,3,0,0,0-3,3v4a1,1,0,0,0,.052.316l1,3a1.008,1.008,0,0,0,.307.453l5.709,4.756c.3,2,1.691,11.528,1.905,17.148-1.239-.493-3.156-1.423-4.232-1.945-.5-.244-.955-.463-1.316-.633-1.373-.645-2.607-1.22-3.723-1.741-3.914-1.823-6.35-2.959-8.344-4.088l0,0c-.656-.372-1.247-.732-1.8-1.1-.7-.46-1.431-.961-2.207-1.493a86.821,86.821,0,0,0-10.895-6.589C10.171,19.944,3.025,21.93,2.726,22.015A1,1,0,0,0,2,22.977v25a1,1,0,0,0,1.707.707l3-3c4.374-4.375,7.716-2.874,7.846-2.813.733.367,1.43.7,2.138,1.038-.093,3.574-1,4.486-2.047,5.529C13.4,50.674,12,52.075,12,57a1,1,0,0,0,.485.857l5,3A1,1,0,0,0,19,60c0-4.313.679-5.691,1.4-7.15.184-.373.369-.75.544-1.168.2.583.421,1.1.638,1.615A16.448,16.448,0,0,1,23,61a1,1,0,0,0,1.515.857l5-3A1,1,0,0,0,30,58c0-4.732-.592-5.749-1.848-6.807-.514-.433-1.129-.954-1.747-3.06C37.987,52.564,45.281,53,50.554,53c.644,0,1.259-.006,1.848-.013.552-.005,1.083-.01,1.6-.01,8,0,8-4.132,8-10.977,0-3.354-1.149-10.715-2.938-18.827l2.8-4.658A1,1,0,0,0,62,18V5A3,3,0,0,0,59,2ZM24.743,30.323q.749.505,1.441.982c.35.24.688.47,1.021.7H23.974ZM29.387,34l-.879,2L22.16,35.98,23.06,34Zm-1.758,4-.883,2-6.436.008.938-2.03ZM15.447,41.082a6.085,6.085,0,0,0-2.569-.5c-1.868,0-4.586.692-7.585,3.691L4,45.562V23.768c1.877-.388,7.051-1.147,11.553,1.1a74.693,74.693,0,0,1,7.5,4.329L17.9,40.455l-.063.136v0l-.622,1.357Q16.343,41.53,15.447,41.082ZM18.6,51.966a13.58,13.58,0,0,0-1.562,6.293l-3.034-1.821c.084-3.624,1-4.536,2.05-5.584,1.1-1.1,2.326-2.322,2.591-6.015q.681.316,1.347.617C19.93,49.27,19.285,50.582,18.6,51.966Zm1.983-8.444L19.024,42.8l.363-.791L25.866,42l-1.407,3.2L21.6,43.984C21.269,43.837,20.923,43.675,20.586,43.522Zm6.277,9.2c.63.531,1.093.921,1.134,4.713L24.96,59.258a16.937,16.937,0,0,0-1.539-6.739,15.163,15.163,0,0,1-1.388-6.163c.283.122.562.245.851.368.411.173.811.336,1.212.5l.014.006C24.918,50.836,25.838,51.859,26.863,52.723ZM60,17.723l-2.857,4.762a1,1,0,0,0-.12.732C59.221,33.1,60,39.514,60,42c0,7.075,0,8.977-6,8.977-.521,0-1.06.005-1.618.01-5.356.056-12.911.127-26.071-5.031l2-4.542,0-.008,1.78-4v0l0,0,1.245-2.861c1.872,1,4.158,2.064,7.514,3.629,1.116.521,2.347,1.094,3.719,1.738.356.167.8.383,1.293.622C47.322,42.2,49.121,43,50,43a1,1,0,0,0,1-1c0-6.008-1.93-18.618-2.012-19.152a1.009,1.009,0,0,0-.347-.617l-5.783-4.817L42,14.838V11a1,1,0,0,1,1-1h1v4h2V5a1,1,0,0,1,2,0V8h2V5a1,1,0,0,1,2,0V8h2V5a1,1,0,0,1,2,0V8h2V5a1,1,0,0,1,2,0Z"/><rect height="2" width="2" x="48" y="10"/><rect height="2" width="2" x="52" y="10"/><rect height="2" width="2" x="56" y="10"/></g></svg>