<svg id="Group_38" data-name="Group 38" xmlns="http://www.w3.org/2000/svg" width="127.257" height="52.047" viewBox="0 0 127.257 52.047">
  <defs>
    <style>
      .cls-1 {
        fill: #fff;
      }
    </style>
  </defs>
  <path id="Path_4" data-name="Path 4" class="cls-1" d="M186.66,123.3l-8.649,12.859-31.9-19.412c3.081-.429,3.231-2.139,3.171-4.225-.133-4.582-.041-9.171-.041-14.344L186.66,123.3" transform="translate(-68.477 -84.109)"/>
  <path id="Path_5" data-name="Path 5" class="cls-1" d="M0,112.629V97.336H2.7c12.041,0,24.083-.055,36.124.055,1.817.016,3.627.8,5.44,1.226q-.013.383-.025.765-9.784,6.586-19.58,13.153a2.857,2.857,0,0,1-1.507.378Q12,112.942.846,112.906A3.323,3.323,0,0,1,0,112.629" transform="translate(0 -83.709)"/>
  <path id="Path_6" data-name="Path 6" class="cls-1" d="M46.255,133.2,37.741,120.35c6.937-4.676,13.945-9,20.473-13.952,3.85-2.922,6.958-3.414,10.944-.541,2.835,2.043,6.151,3.418,9.709,5.338L46.255,133.2" transform="translate(-17.689 -86.809)"/>
  <path id="Path_7" data-name="Path 7" class="cls-1" d="M200.314,97.776v15.358c-7.1,0-14.054.016-21.01-.031a3.384,3.384,0,0,1-1.673-.7c-7.119-4.767-14.222-9.558-21.754-14.63Z" transform="translate(-73.057 -83.922)"/>
  <path id="Path_8" data-name="Path 8" class="cls-1" d="M120.129,110.989V78.379c5.2,1.951,9.977,3.7,14.7,5.588a2.4,2.4,0,0,1,.944,1.869q.111,9.023.01,18.046c-.007.646-.433,1.684-.917,1.865-4.864,1.821-9.782,3.5-14.738,5.24" transform="translate(-56.302 -74.831)"/>
  <path id="Path_9" data-name="Path 9" class="cls-1" d="M79.8,84.551,95.184,71.7c.273.132.351.174.432.209,3.472,1.515,4.8,3.91,4.407,7.892-.48,4.891-.115,9.864-.115,15.478L79.8,84.551" transform="translate(-37.4 -71.701)"/>
  <path id="Path_10" data-name="Path 10" class="cls-1" d="M34.545,153.04l-4.1,2.775-8.628-12.837L26.04,140.2l8.5,12.84" transform="translate(-10.225 -103.805)"/>
  <path id="Path_11" data-name="Path 11" class="cls-1" d="M108.859,130.752l-8.924-5.193,8.924-6.106Z" transform="translate(-46.838 -94.082)"/>
  <path id="Path_12" data-name="Path 12" class="cls-1" d="M34.651,136.5l8.311,12.517-1.972,1.524c-2.654-4-5.245-7.785-7.664-11.678-.333-.536.189-1.6.315-2.423l1.01.061" transform="translate(-15.568 -102.042)"/>
</svg>
