<svg id="Group_77" data-name="Group 77" xmlns="http://www.w3.org/2000/svg" width="87.409" height="87.408" viewBox="0 0 87.409 87.408">
  <defs>
    <style>
      .cls-1 {
        fill: #c8001b;
      }

      .cls-2 {
        fill: #40d876;
      }

      .cls-3 {
        fill: #3d5ad0;
      }

    </style>
  </defs>
  <path id="Path_90" data-name="Path 90" class="cls-1" d="M61.84,14.867,36.774,29.339h-.919L10.79,14.867a29.345,29.345,0,0,1,51.05,0" transform="translate(3.976 12)"/>
  <path id="Path_91" data-name="Path 91" class="cls-2" d="M112.339,56.532A29.337,29.337,0,0,1,83,85.871V56.8l.46-.265L108.525,42.06a29.179,29.179,0,0,1,3.814,14.472" transform="translate(-43.661 -16.193)"/>
  <path id="Path_92" data-name="Path 92" class="cls-3" d="M29.339,56.8V85.871A29.344,29.344,0,0,1,3.814,42.06L28.879,56.532Z" transform="translate(10 -16.193)"/>
  <path id="Path_93" data-name="Path 93" d="M82.619,83l-.46.265L81.7,83Z" transform="translate(-52.82 -53.661)"/>
  <line id="Line_7" data-name="Line 7" y1="0.265" transform="translate(29.339 29.339)"/>
  <line id="Line_10" data-name="Line 10" x1="0.343" y2="0.198" transform="translate(3.701 44.206)"/>
</svg>
