<svg xmlns="http://www.w3.org/2000/svg" xmlns:xlink="http://www.w3.org/1999/xlink" width="90.287" height="88.696" viewBox="0 0 90.287 88.696">
  <defs>
    <style>
      .cls-1 {
        fill: #40d876;
      }

      .cls-2 {
        fill: #fff;
      }

      .cls-3 {
        fill: #c7001b;
      }

      .cls-4 {
        filter: url(#Subtraction_10-2);
      }

      .cls-5 {
        filter: url(#Subtraction_10);
      }

      .cls-6 {
        filter: url(#Subtraction_9-2);
      }

      .cls-7 {
        filter: url(#Subtraction_9);
      }
    </style>
    <filter id="Subtraction_9" x="28.644" y="0" width="61.643" height="88.696" filterUnits="userSpaceOnUse">
      <feOffset dx="2" dy="3" input="SourceAlpha"/>
      <feGaussianBlur stdDeviation="5.5" result="blur"/>
      <feFlood flood-opacity="0.161"/>
      <feComposite operator="in" in2="blur"/>
      <feComposite in="SourceGraphic"/>
    </filter>
    <filter id="Subtraction_9-2" x="28.644" y="0" width="61.643" height="88.696" filterUnits="userSpaceOnUse">
      <feOffset dx="3" dy="6" input="SourceAlpha"/>
      <feGaussianBlur stdDeviation="2.5" result="blur-2"/>
      <feFlood flood-opacity="0.161" result="color"/>
      <feComposite operator="out" in="SourceGraphic" in2="blur-2"/>
      <feComposite operator="in" in="color"/>
      <feComposite operator="in" in2="SourceGraphic"/>
    </filter>
    <filter id="Subtraction_10" x="0" y="0" width="61.644" height="88.696" filterUnits="userSpaceOnUse">
      <feOffset dx="2" dy="3" input="SourceAlpha"/>
      <feGaussianBlur stdDeviation="5.5" result="blur-3"/>
      <feFlood flood-opacity="0.161"/>
      <feComposite operator="in" in2="blur-3"/>
      <feComposite in="SourceGraphic"/>
    </filter>
    <filter id="Subtraction_10-2" x="0" y="0" width="61.644" height="88.696" filterUnits="userSpaceOnUse">
      <feOffset dx="3" dy="6" input="SourceAlpha"/>
      <feGaussianBlur stdDeviation="2.5" result="blur-4"/>
      <feFlood flood-opacity="0.161" result="color-2"/>
      <feComposite operator="out" in="SourceGraphic" in2="blur-4"/>
      <feComposite operator="in" in="color-2"/>
      <feComposite operator="in" in2="SourceGraphic"/>
    </filter>
  </defs>
  <g id="Group_65" data-name="Group 65" transform="translate(14.5 13.5)">
    <g data-type="innerShadowGroup">
      <g class="cls-7" transform="matrix(1, 0, 0, 1, -14.5, -13.5)">
        <path id="Subtraction_9-3" data-name="Subtraction 9" class="cls-1" d="M28.643,55.7h0v0h0A28.861,28.861,0,0,1,8.389,47.539a27.3,27.3,0,0,1,0-39.383A28.874,28.874,0,0,1,28.643,0Z" transform="translate(71.79 69.2) rotate(180)"/>
      </g>
      <g class="cls-6" transform="matrix(1, 0, 0, 1, -14.5, -13.5)">
        <path id="Subtraction_9-4" data-name="Subtraction 9" class="cls-2" d="M28.643,55.7h0v0h0A28.861,28.861,0,0,1,8.389,47.539a27.3,27.3,0,0,1,0-39.383A28.874,28.874,0,0,1,28.643,0Z" transform="translate(71.79 69.2) rotate(180)"/>
      </g>
    </g>
    <g data-type="innerShadowGroup">
      <g class="cls-5" transform="matrix(1, 0, 0, 1, -14.5, -13.5)">
        <path id="Subtraction_10-3" data-name="Subtraction 10" class="cls-3" d="M28.643,55.7h0v0h0A28.861,28.861,0,0,1,8.389,47.539a27.3,27.3,0,0,1,0-39.383A28.874,28.874,0,0,1,28.643,0Z" transform="translate(14.5 13.5)"/>
      </g>
      <g class="cls-4" transform="matrix(1, 0, 0, 1, -14.5, -13.5)">
        <path id="Subtraction_10-4" data-name="Subtraction 10" class="cls-2" d="M28.643,55.7h0v0h0A28.861,28.861,0,0,1,8.389,47.539a27.3,27.3,0,0,1,0-39.383A28.874,28.874,0,0,1,28.643,0Z" transform="translate(14.5 13.5)"/>
      </g>
    </g>
  </g>
</svg>
