<svg width="129" height="126" viewBox="0 0 129 126" fill="none" xmlns="http://www.w3.org/2000/svg">
<path d="M128.5 63C128.5 97.5068 99.8574 125.5 64.5 125.5C29.1426 125.5 0.5 97.5068 0.5 63C0.5 28.4932 29.1426 0.5 64.5 0.5C99.8574 0.5 128.5 28.4932 128.5 63Z" fill="white" stroke="#707070"/>
<path d="M64.5001 20.5119C51.8049 20.5119 41.418 32.4086 41.418 47.067C41.418 61.7253 51.8049 73.622 64.5001 73.622C77.1952 73.622 87.5822 61.7253 87.5822 47.067C87.5822 32.4086 77.1952 20.5119 64.5001 20.5119ZM40.3793 73.622C28.1458 74.1531 18.3359 83.3943 18.3359 94.8661V105.488H110.664V94.8661C110.664 83.3943 100.97 74.1531 88.6209 73.622C82.3887 80.1015 73.8483 84.2441 64.5001 84.2441C55.1518 84.2441 46.6115 80.1015 40.3793 73.622Z" fill="#262626"/>
</svg>
